# ProBuilder 5.0.6
# https://unity3d.com/unity/features/worldbuilding/probuilder
# 1/26/2023 7:09:16 AM

mtllib ./Model.mtl
o Model

g Model
v -0.7602633 -0.3450352 0.560842
v -0.1402633 -0.3450352 0.560842
v -0.7602633 -0.3450352 0.2742391
v -0.1402633 -0.3450352 0.2742391
v -0.7574672 -0.2703051 0.2742391
v -0.7574672 -0.2703051 0.560842
v -0.1392008 -0.3166378 0.2742391
v -0.1392008 -0.3166378 0.560842
v -0.7490941 -0.195993 0.2742391
v -0.7490941 -0.195993 0.560842
v -0.1360191 -0.2883992 0.2742391
v -0.1360191 -0.2883992 0.560842
v -0.7351912 -0.1225143 0.2742391
v -0.7351912 -0.1225143 0.560842
v -0.130736 -0.2604772 0.2742391
v -0.130736 -0.2604772 0.560842
v -0.7158362 -0.05028005 0.2742391
v -0.7158362 -0.05028005 0.560842
v -0.123381 -0.2330282 0.2742391
v -0.123381 -0.2330282 0.560842
v -0.6911371 0.0203058 0.2742391
v -0.6911371 0.0203058 0.560842
v -0.1139954 -0.2062056 0.2742391
v -0.1139954 -0.2062056 0.560842
v -0.6612322 0.08884852 0.2742391
v -0.6612322 0.08884852 0.560842
v -0.1026315 -0.1801594 0.2742391
v -0.1026315 -0.1801594 0.560842
v -0.6262888 0.1549648 0.2742391
v -0.6262888 0.1549648 0.560842
v -0.089353 -0.1550352 0.2742391
v -0.089353 -0.1550352 0.560842
v -0.5865022 0.2182848 0.2742391
v -0.5865022 0.2182848 0.560842
v -0.0742341 -0.1309736 0.2742391
v -0.0742341 -0.1309736 0.560842
v -0.5420948 0.2784547 0.2742391
v -0.5420948 0.2784547 0.560842
v -0.05735931 -0.1081091 0.2742391
v -0.05735931 -0.1081091 0.560842
v -0.4933152 0.3351375 0.2742391
v -0.4933152 0.3351375 0.560842
v -0.03882307 -0.08656956 0.2742391
v -0.03882307 -0.08656956 0.560842
v -0.4404361 0.3880167 0.2742391
v -0.4404361 0.3880167 0.560842
v -0.018729 -0.0664755 0.2742391
v -0.018729 -0.0664755 0.560842
v -0.3837532 0.4367962 0.2742391
v -0.3837532 0.4367962 0.560842
v 0.002810508 -0.04793926 0.2742391
v 0.002810508 -0.04793926 0.560842
v -0.3235834 0.4812036 0.2742391
v -0.3235834 0.4812036 0.560842
v 0.02567503 -0.03106447 0.2742391
v 0.02567503 -0.03106447 0.560842
v -0.2602633 0.5209903 0.2742391
v -0.2602633 0.5209903 0.560842
v 0.04973668 -0.01594554 0.2742391
v 0.04973668 -0.01594554 0.560842
v -0.1941471 0.5559337 0.2742391
v -0.1941471 0.5559337 0.560842
v 0.07486081 -0.002667055 0.2742391
v 0.07486081 -0.002667055 0.560842
v -0.1256045 0.5858386 0.2742391
v -0.1256045 0.5858386 0.560842
v 0.100907 0.008696809 0.2742391
v 0.100907 0.008696809 0.560842
v -0.05501863 0.6105376 0.2742391
v -0.05501863 0.6105376 0.560842
v 0.1277297 0.01808245 0.2742391
v 0.1277297 0.01808245 0.560842
v 0.01721579 0.6298927 0.2742391
v 0.01721579 0.6298927 0.560842
v 0.1551787 0.0254374 0.2742391
v 0.1551787 0.0254374 0.560842
v 0.0906944 0.6437956 0.2742391
v 0.0906944 0.6437956 0.560842
v 0.1831006 0.03072049 0.2742391
v 0.1831006 0.03072049 0.560842
v 0.1650065 0.6521686 0.2742391
v 0.1650065 0.6521686 0.560842
v 0.2113392 0.03390221 0.2742391
v 0.2113392 0.03390221 0.560842
v 0.2397367 0.6549648 0.2742391
v 0.2397367 0.6549648 0.560842
v 0.2397367 0.03496478 0.2742391
v 0.2397367 0.03496478 0.560842

vt -0.7602633 0.560842
vt -0.1402633 0.560842
vt -0.7602633 0.2742391
vt -0.1402633 0.2742391
vt 0.2742391 -0.3732208
vt 0.2742391 -0.2984384
vt 0.560842 -0.3732208
vt 0.560842 -0.2984384
vt -0.2742391 -0.3216211
vt -0.2742391 -0.3500385
vt -0.560842 -0.3216211
vt -0.560842 -0.3500385
vt 0.2742391 -0.3534154
vt 0.2742391 -0.2786331
vt 0.560842 -0.3534154
vt 0.560842 -0.2786331
vt -0.2742391 -0.3018152
vt -0.2742391 -0.3302325
vt -0.560842 -0.3018152
vt -0.560842 -0.3302325
vt 0.2742391 -0.3318413
vt 0.2742391 -0.2570589
vt 0.560842 -0.3318413
vt 0.560842 -0.2570589
vt -0.2742391 -0.2802415
vt -0.2742391 -0.3086588
vt -0.560842 -0.2802415
vt -0.560842 -0.3086588
vt 0.2742391 -0.3086208
vt 0.2742391 -0.2338384
vt 0.560842 -0.3086208
vt 0.560842 -0.2338384
vt -0.2742391 -0.2570214
vt -0.2742391 -0.2854387
vt -0.560842 -0.2570214
vt -0.560842 -0.2854387
vt 0.2742391 -0.2838845
vt 0.2742391 -0.2091021
vt 0.560842 -0.2838845
vt 0.560842 -0.2091021
vt -0.2742391 -0.2322843
vt -0.2742391 -0.2607017
vt -0.560842 -0.2322843
vt -0.560842 -0.2607017
vt 0.2742391 -0.2577684
vt 0.2742391 -0.182986
vt 0.560842 -0.2577684
vt 0.560842 -0.182986
vt -0.2742391 -0.2061688
vt -0.2742391 -0.2345861
vt -0.560842 -0.2061688
vt -0.560842 -0.2345861
vt 0.2742391 -0.2304207
vt 0.2742391 -0.1556383
vt 0.560842 -0.2304207
vt 0.560842 -0.1556383
vt -0.2742391 -0.1788209
vt -0.2742391 -0.2072382
vt -0.560842 -0.1788209
vt -0.560842 -0.2072382
vt 0.2742391 -0.201993
vt 0.2742391 -0.1272107
vt 0.560842 -0.201993
vt 0.560842 -0.1272107
vt -0.2742391 -0.1503934
vt -0.560842 -0.1503934
vt 0.2742391 -0.1726454
vt 0.2742391 -0.09786292
vt 0.560842 -0.1726454
vt 0.560842 -0.09786292
vt -0.2742391 -0.1210454
vt -0.2742391 -0.1494628
vt -0.560842 -0.1210454
vt -0.560842 -0.1494628
vt 0.2742391 -0.142541
vt 0.2742391 -0.06775863
vt 0.560842 -0.142541
vt 0.560842 -0.06775863
vt -0.2742391 -0.09094109
vt -0.2742391 -0.1193584
vt -0.560842 -0.09094109
vt -0.560842 -0.1193584
vt 0.1118485 0.2742391
vt 0.03706611 0.2742391
vt 0.1118485 0.560842
vt 0.03706611 0.560842
vt -0.06024868 0.2742391
vt -0.08866598 0.2742391
vt -0.06024868 0.560842
vt -0.08866598 0.560842
vt 0.08073981 0.2742391
vt 0.005957496 0.2742391
vt 0.08073981 0.560842
vt 0.005957496 0.560842
vt -0.02913988 0.2742391
vt -0.05755718 0.2742391
vt -0.02913988 0.560842
vt -0.05755718 0.560842
vt 0.04938842 0.2742391
vt -0.02539407 0.2742391
vt 0.04938842 0.560842
vt -0.02539407 0.560842
vt 0.002211357 0.2742391
vt -0.02620598 0.2742391
vt 0.002211357 0.560842
vt -0.02620598 0.560842
vt 0.01797011 0.2742391
vt -0.0568123 0.2742391
vt 0.01797011 0.560842
vt -0.0568123 0.560842
vt 0.03362972 0.2742391
vt 0.005212388 0.2742391
vt 0.03362972 0.560842
vt 0.005212388 0.560842
vt -0.01333933 0.2742391
vt -0.08812165 0.2742391
vt -0.01333933 0.560842
vt -0.08812165 0.560842
vt 0.06493937 0.2742391
vt 0.03652212 0.2742391
vt 0.06493937 0.560842
vt 0.03652212 0.560842
vt -0.04436585 0.2742391
vt -0.1191482 0.2742391
vt -0.04436585 0.560842
vt -0.1191482 0.560842
vt 0.09596534 0.2742391
vt 0.06754804 0.2742391
vt 0.09596534 0.560842
vt 0.06754804 0.560842
vt -0.07493418 0.2742391
vt -0.1497165 0.2742391
vt -0.07493418 0.560842
vt -0.1497165 0.560842
vt 0.1265341 0.2742391
vt 0.09811683 0.2742391
vt 0.1265341 0.560842
vt 0.09811683 0.560842
vt -0.1048745 0.2742391
vt -0.1796571 0.2742391
vt -0.1048745 0.560842
vt -0.1796571 0.560842
vt 0.1564748 0.2742391
vt 0.1280575 0.2742391
vt 0.1564748 0.560842
vt 0.1280575 0.560842
vt -0.13402 0.2742391
vt -0.2088023 0.2742391
vt -0.13402 0.560842
vt -0.2088023 0.560842
vt 0.1856198 0.2742391
vt 0.1572025 0.2742391
vt 0.1856198 0.560842
vt 0.1572025 0.560842
vt -0.1622064 0.2742391
vt -0.2369887 0.2742391
vt -0.1622064 0.560842
vt -0.2369887 0.560842
vt 0.2138062 0.2742391
vt 0.1853889 0.2742391
vt 0.2138062 0.560842
vt 0.1853889 0.560842
vt -0.1892767 0.2742391
vt -0.2640592 0.2742391
vt -0.1892767 0.560842
vt -0.2640592 0.560842
vt 0.2408764 0.2742391
vt 0.2124591 0.2742391
vt 0.2408764 0.560842
vt 0.2124591 0.560842
vt -0.560842 0.03496478
vt -0.560842 0.6549648
vt -0.2742391 0.03496478
vt -0.2742391 0.6549648
vt -0.7602633 -0.3450352
vt -0.7574672 -0.2703051
vt -0.1402633 -0.3450352
vt -0.1392008 -0.3166378
vt 0.7574672 -0.2703051
vt 0.7602633 -0.3450352
vt 0.1392008 -0.3166378
vt 0.1402633 -0.3450352
vt -0.7490941 -0.195993
vt -0.1360191 -0.2883992
vt 0.7490941 -0.195993
vt 0.1360191 -0.2883992
vt -0.7351912 -0.1225143
vt -0.130736 -0.2604772
vt 0.7351912 -0.1225143
vt 0.130736 -0.2604772
vt -0.7158362 -0.05028005
vt -0.123381 -0.2330282
vt 0.7158362 -0.05028005
vt 0.123381 -0.2330282
vt -0.6911371 0.0203058
vt -0.1139954 -0.2062056
vt 0.6911371 0.0203058
vt 0.1139954 -0.2062056
vt -0.6612322 0.08884852
vt -0.1026315 -0.1801594
vt 0.6612322 0.08884852
vt 0.1026315 -0.1801594
vt -0.6262888 0.1549648
vt -0.089353 -0.1550352
vt 0.6262888 0.1549648
vt 0.089353 -0.1550352
vt -0.5865022 0.2182848
vt -0.0742341 -0.1309736
vt 0.5865022 0.2182848
vt 0.0742341 -0.1309736
vt -0.5420948 0.2784547
vt -0.05735931 -0.1081091
vt 0.5420948 0.2784547
vt 0.05735931 -0.1081091
vt -0.4933152 0.3351375
vt -0.03882307 -0.08656956
vt 0.4933152 0.3351375
vt 0.03882307 -0.08656956
vt -0.4404361 0.3880167
vt -0.018729 -0.0664755
vt 0.4404361 0.3880167
vt 0.018729 -0.0664755
vt -0.3837532 0.4367962
vt 0.002810508 -0.04793926
vt 0.3837532 0.4367962
vt -0.002810508 -0.04793926
vt -0.3235834 0.4812036
vt 0.02567503 -0.03106447
vt 0.3235834 0.4812036
vt -0.02567503 -0.03106447
vt -0.2602633 0.5209903
vt 0.04973668 -0.01594554
vt 0.2602633 0.5209903
vt -0.04973668 -0.01594554
vt -0.1941471 0.5559337
vt 0.07486081 -0.002667055
vt 0.1941471 0.5559337
vt -0.07486081 -0.002667055
vt -0.1256045 0.5858386
vt 0.100907 0.008696809
vt 0.1256045 0.5858386
vt -0.100907 0.008696809
vt -0.05501863 0.6105376
vt 0.1277297 0.01808245
vt 0.05501863 0.6105376
vt -0.1277297 0.01808245
vt 0.01721579 0.6298927
vt 0.1551787 0.0254374
vt -0.01721579 0.6298927
vt -0.1551787 0.0254374
vt 0.0906944 0.6437956
vt 0.1831006 0.03072049
vt -0.0906944 0.6437956
vt -0.1831006 0.03072049
vt 0.1650065 0.6521686
vt 0.2113392 0.03390221
vt -0.1650065 0.6521686
vt -0.2113392 0.03390221
vt 0.2397367 0.6549648
vt 0.2397367 0.03496478
vt -0.2397367 0.6549648
vt -0.2397367 0.03496478

vn 0 -1 0
vn -0.9993008 0.03739079 0
vn -0.9972038 0.07473025 0
vn 0.9972038 -0.07473035 0
vn 0.9993008 -0.03739066 0
vn -0.9888308 0.1490426 0
vn 0.9888308 -0.1490424 0
vn -0.974928 0.2225205 0
vn 0.974928 -0.2225207 0
vn -0.9555728 0.2947551 0
vn 0.9555728 -0.2947553 0
vn -0.9308738 0.365341 0
vn 0.9308736 -0.3653413 0
vn -0.900969 0.4338835 0
vn 0.9009688 -0.4338839 0
vn -0.8660255 0.4999998 0
vn 0.8660256 -0.4999996 0
vn -0.8262389 0.5633199 0
vn 0.8262389 -0.5633199 0
vn -0.7818314 0.6234899 0
vn 0.7818315 -0.6234898 0
vn -0.7330518 0.6801728 0
vn 0.7330519 -0.6801727 0
vn -0.6801727 0.7330519 0
vn 0.6801727 -0.7330519 0
vn -0.6234898 0.7818315 0
vn 0.6234898 -0.7818315 0
vn -0.5633202 0.8262387 0
vn 0.56332 -0.8262388 0
vn -0.4999998 0.8660255 0
vn 0.4999997 -0.8660255 0
vn -0.4338838 0.9009688 0
vn 0.4338839 -0.9009688 0
vn -0.3653412 0.9308737 0
vn 0.3653413 -0.9308736 0
vn -0.2947549 0.9555729 0
vn 0.294755 -0.9555728 0
vn -0.2225207 0.974928 0
vn 0.2225205 -0.974928 0
vn -0.1490422 0.9888308 0
vn 0.149042 -0.9888309 0
vn -0.07473026 0.9972038 0
vn 0.1119644 -0.9937122 0
vn -0.03739156 0.9993007 0
vn 0.03739167 -0.9993007 0
vn 1 0 0
vn 0 0 1
vn 0 0 -1

usemtl ProBuilderDefault
f 3/3/1 4/4/1 2/2/1 1/1/1
f 1/7/2 6/8/3 5/6/3 3/5/2
f 8/11/4 2/12/5 4/10/5 7/9/4
f 6/15/3 10/16/6 9/14/6 5/13/3
f 12/19/7 8/20/4 7/18/4 11/17/7
f 10/23/6 14/24/8 13/22/8 9/21/6
f 16/27/9 12/28/7 11/26/7 15/25/9
f 14/31/8 18/32/10 17/30/10 13/29/8
f 20/35/11 16/36/9 15/34/9 19/33/11
f 18/39/10 22/40/12 21/38/12 17/37/10
f 24/43/13 20/44/11 19/42/11 23/41/13
f 22/47/12 26/48/14 25/46/14 21/45/12
f 28/51/15 24/52/13 23/50/13 27/49/15
f 26/55/14 30/56/16 29/54/16 25/53/14
f 32/59/17 28/60/15 27/58/15 31/57/17
f 30/63/16 34/64/18 33/62/18 29/61/16
f 36/66/19 32/59/17 31/57/17 35/65/19
f 34/69/18 38/70/20 37/68/20 33/67/18
f 40/73/21 36/74/19 35/72/19 39/71/21
f 38/77/20 42/78/22 41/76/22 37/75/20
f 44/81/23 40/82/21 39/80/21 43/79/23
f 42/85/22 46/86/24 45/84/24 41/83/22
f 48/89/25 44/90/23 43/88/23 47/87/25
f 46/93/24 50/94/26 49/92/26 45/91/24
f 52/97/27 48/98/25 47/96/25 51/95/27
f 50/101/26 54/102/28 53/100/28 49/99/26
f 56/105/29 52/106/27 51/104/27 55/103/29
f 54/109/28 58/110/30 57/108/30 53/107/28
f 60/113/31 56/114/29 55/112/29 59/111/31
f 58/117/30 62/118/32 61/116/32 57/115/30
f 64/121/33 60/122/31 59/120/31 63/119/33
f 62/125/32 66/126/34 65/124/34 61/123/32
f 68/129/35 64/130/33 63/128/33 67/127/35
f 66/133/34 70/134/36 69/132/36 65/131/34
f 72/137/37 68/138/35 67/136/35 71/135/37
f 70/141/36 74/142/38 73/140/38 69/139/36
f 76/145/39 72/146/37 71/144/37 75/143/39
f 74/149/38 78/150/40 77/148/40 73/147/38
f 80/153/41 76/154/39 75/152/39 79/151/41
f 78/157/40 82/158/42 81/156/42 77/155/40
f 84/161/43 80/162/41 79/160/41 83/159/43
f 82/165/42 86/166/44 85/164/44 81/163/42
f 88/169/45 84/170/45 83/168/45 87/167/45
f 87/173/46 85/174/46 86/172/46 88/171/46
f 2/177/47 8/178/47 6/176/47 1/175/47
f 7/181/48 4/182/48 3/180/48 5/179/48
f 8/178/47 12/184/47 10/183/47 6/176/47
f 11/186/48 7/181/48 5/179/48 9/185/48
f 12/184/47 16/188/47 14/187/47 10/183/47
f 15/190/48 11/186/48 9/185/48 13/189/48
f 16/188/47 20/192/47 18/191/47 14/187/47
f 19/194/48 15/190/48 13/189/48 17/193/48
f 20/192/47 24/196/47 22/195/47 18/191/47
f 23/198/48 19/194/48 17/193/48 21/197/48
f 24/196/47 28/200/47 26/199/47 22/195/47
f 27/202/48 23/198/48 21/197/48 25/201/48
f 28/200/47 32/204/47 30/203/47 26/199/47
f 31/206/48 27/202/48 25/201/48 29/205/48
f 32/204/47 36/208/47 34/207/47 30/203/47
f 35/210/48 31/206/48 29/205/48 33/209/48
f 36/208/47 40/212/47 38/211/47 34/207/47
f 39/214/48 35/210/48 33/209/48 37/213/48
f 40/212/47 44/216/47 42/215/47 38/211/47
f 43/218/48 39/214/48 37/213/48 41/217/48
f 44/216/47 48/220/47 46/219/47 42/215/47
f 47/222/48 43/218/48 41/217/48 45/221/48
f 48/220/47 52/224/47 50/223/47 46/219/47
f 51/226/48 47/222/48 45/221/48 49/225/48
f 52/224/47 56/228/47 54/227/47 50/223/47
f 55/230/48 51/226/48 49/225/48 53/229/48
f 56/228/47 60/232/47 58/231/47 54/227/47
f 59/234/48 55/230/48 53/229/48 57/233/48
f 60/232/47 64/236/47 62/235/47 58/231/47
f 63/238/48 59/234/48 57/233/48 61/237/48
f 64/236/47 68/240/47 66/239/47 62/235/47
f 67/242/48 63/238/48 61/237/48 65/241/48
f 68/240/47 72/244/47 70/243/47 66/239/47
f 71/246/48 67/242/48 65/241/48 69/245/48
f 72/244/47 76/248/47 74/247/47 70/243/47
f 75/250/48 71/246/48 69/245/48 73/249/48
f 76/248/47 80/252/47 78/251/47 74/247/47
f 79/254/48 75/250/48 73/249/48 77/253/48
f 80/252/47 84/256/47 82/255/47 78/251/47
f 83/258/48 79/254/48 77/253/48 81/257/48
f 84/256/47 88/260/47 86/259/47 82/255/47
f 87/262/48 83/258/48 81/257/48 85/261/48

